<svg preserveAspectRatio="none" width="100%" height="100%" overflow="visible" style="display: block;" viewBox="0 0 22 21" fill="none" xmlns="http://www.w3.org/2000/svg">
<g id="BACKGROUND_2" clip-path="url(#clip0_2032_1116)">
<path id="Vector" d="M1.27043 13.7617H11.111V15.5698H17.2625V13.7657H19.7063C19.8646 15.916 19.8771 17.8305 17.6716 19.2899C17.6447 19.3076 17.623 19.3319 17.5633 19.3851C17.8345 19.6104 18.1018 19.833 18.3665 20.053C18.0092 20.3946 17.7222 20.6691 17.3932 20.9844C17.1029 20.6849 16.7889 20.3374 16.4467 20.0209C16.3462 19.9276 16.1683 19.8895 16.0224 19.8803C15.784 19.8659 15.5423 19.9046 15.302 19.9053C12.1067 19.9072 8.91145 19.9066 5.71554 19.9066C5.56251 19.9066 5.39897 19.9361 5.25777 19.8935C4.83151 19.7654 4.56092 19.9631 4.3074 20.2685C4.09132 20.5286 3.84502 20.763 3.61975 21.0008C3.31566 20.6809 3.04046 20.3919 2.73572 20.0708C2.93998 19.8902 3.19941 19.6603 3.49102 19.4015C3.29004 19.2577 3.13964 19.1579 2.99712 19.0475C1.92919 18.2246 1.35187 17.133 1.27634 15.7925C1.23891 15.1285 1.26977 14.4605 1.26977 13.7617H1.27043Z" fill="var(--fill-0, black)"/>
<path id="Vector_2" d="M1.27547 8.78711C1.27022 8.66823 1.26102 8.56118 1.26102 8.45412C1.26037 6.71364 1.2584 4.97382 1.26102 3.23335C1.26365 1.32079 2.59101 -0.0137925 4.50094 0C5.14196 0.00459749 5.80268 -0.00853819 6.41875 0.136611C7.51163 0.394727 8.19994 1.15266 8.53228 2.22059C8.59664 2.42813 8.68005 2.52862 8.90796 2.59035C10.1939 2.93911 11.0964 4.14102 11.1128 5.48217C11.1154 5.69825 11.1128 5.91434 11.1128 6.14881H5.02571C4.73541 4.61391 5.56953 3.02974 7.31329 2.53518C7.15566 1.85016 6.48114 1.27219 5.77313 1.24723C5.23785 1.22819 4.7006 1.22622 4.16532 1.24723C3.24254 1.28336 2.50038 2.13061 2.49643 3.14665C2.48987 4.89764 2.49446 6.64928 2.49446 8.40026C2.49446 8.5198 2.49446 8.63933 2.49446 8.78645H1.27416L1.27547 8.78711Z" fill="var(--fill-0, black)"/>
<path id="Vector_3" d="M11.0936 12.5328C10.9648 12.5328 10.8683 12.5328 10.7718 12.5328C7.64415 12.5328 4.51589 12.5335 1.38828 12.5321C0.715079 12.5321 0.231029 12.2136 0.0609225 11.6698C-0.195223 10.8514 0.384717 10.0633 1.26875 10.0515C2.20926 10.039 3.14978 10.0482 4.09029 10.0482C6.29971 10.0482 8.50847 10.0482 10.7179 10.0482C10.8361 10.0482 10.9543 10.0482 11.0936 10.0482V12.5321V12.5328Z" fill="var(--fill-0, black)"/>
<path id="Vector_4" d="M16.0227 14.3712H12.3625C12.3565 14.2556 12.3467 14.1506 12.3467 14.0455C12.3454 12.7772 12.3454 11.5083 12.3467 10.2401C12.3473 9.32254 12.8485 8.81813 13.7621 8.81419C14.101 8.81288 14.4399 8.80565 14.7788 8.81616C15.54 8.84046 16.0372 9.35209 16.0391 10.1153C16.0431 11.4387 16.0404 12.7615 16.0391 14.0849C16.0391 14.1709 16.0299 14.2563 16.0227 14.3712Z" fill="var(--fill-0, black)"/>
<path id="Vector_5" d="M17.2832 12.5203V10.0475C17.8782 10.0475 18.4648 10.0455 19.0506 10.0481C19.356 10.0495 19.668 10.0245 19.9668 10.0738C20.619 10.1815 21.0433 10.7154 21.0164 11.3387C20.9901 11.9502 20.5389 12.475 19.8985 12.5085C19.0394 12.5538 18.1764 12.5196 17.2839 12.5196L17.2832 12.5203Z" fill="var(--fill-0, black)"/>
</g>
<defs>
<clipPath id="clip0_2032_1116">
<rect width="21.0171" height="21" fill="white"/>
</clipPath>
</defs>
</svg>
