<svg preserveAspectRatio="none" width="100%" height="100%" overflow="visible" style="display: block;" viewBox="0 0 24 24" fill="none" xmlns="http://www.w3.org/2000/svg">
<g id="Icon">
<path id="Subtract" d="M19.9004 2.078C20.3973 2.07821 20.7998 2.48147 20.7998 2.97839C20.7996 3.47514 20.3971 3.8776 19.9004 3.87781H19.5996V19.4784H19.9004C20.3972 19.4786 20.7997 19.881 20.7998 20.3778C20.7998 20.8747 20.3973 21.278 19.9004 21.2782H15.7002C15.2031 21.2782 14.7998 20.8749 14.7998 20.3778V17.3778C14.7997 16.881 14.3972 16.4786 13.9004 16.4784H10.9004C10.4034 16.4784 10.0001 16.8808 10 17.3778V20.3778C10 20.8749 9.59667 21.2782 9.09961 21.2782H4.90039C4.40333 21.2782 4 20.8749 4 20.3778C4.00011 19.8808 4.4034 19.4784 4.90039 19.4784H5.2002V3.87781H4.90039C4.40346 3.87781 4.00021 3.47527 4 2.97839C4 2.48134 4.40333 2.078 4.90039 2.078H19.9004ZM9.39844 10.4784C9.06738 10.4786 8.79904 10.7469 8.79883 11.078V12.2782C8.79883 12.6094 9.06725 12.8786 9.39844 12.8788H10.5986C10.93 12.8788 11.1992 12.6096 11.1992 12.2782V11.078C11.199 10.7468 10.9299 10.4784 10.5986 10.4784H9.39844ZM14.1992 10.4784C13.8682 10.4786 13.5998 10.7469 13.5996 11.078V12.2782C13.5996 12.6094 13.868 12.8786 14.1992 12.8788H15.3994C15.7308 12.8788 16 12.6096 16 12.2782V11.078C15.9998 10.7468 15.7307 10.4784 15.3994 10.4784H14.1992ZM9.39844 5.67761C9.06738 5.67782 8.79904 5.94616 8.79883 6.27722V7.47742C8.79883 7.80866 9.06725 8.07779 9.39844 8.078H10.5986C10.93 8.078 11.1992 7.80879 11.1992 7.47742V6.27722C11.199 5.94603 10.9299 5.67761 10.5986 5.67761H9.39844ZM14.1992 5.67761C13.8682 5.67782 13.5998 5.94616 13.5996 6.27722V7.47742C13.5996 7.80866 13.868 8.07779 14.1992 8.078H15.3994C15.7308 8.078 16 7.80879 16 7.47742V6.27722C15.9998 5.94603 15.7307 5.67761 15.3994 5.67761H14.1992Z" fill="var(--fill-0, black)"/>
</g>
</svg>
